<?xml version="1.0" encoding="utf-8"?>
<!-- Generator: Adobe Illustrator 27.8.1, SVG Export Plug-In . SVG Version: 6.00 Build 0)  -->
<svg version="1.1" xmlns="http://www.w3.org/2000/svg" xmlns:xlink="http://www.w3.org/1999/xlink" x="0px" y="0px"
	 viewBox="0 0 525 545" style="enable-background:new 0 0 525 545;" xml:space="preserve">
<style type="text/css">
	.st0{display:none;}
	.st1{display:inline;}
</style>
<g id="_x30_">
	<g>
		<path d="M481.91,300.76l-199.64-28.52l201.21,12.95c24.15,1.57,43.74-18.9,41.29-43.04c-2.45-24.15-26.07-39.89-49.34-33.42
			l-193.87,55.12l189.14-69.99c22.57-8.4,32.37-35.17,20.12-55.99l0,0c-12.07-20.82-40.07-25.9-58.61-10.32L277.2,256.84
			l144.35-140.85c17.32-16.8,15.22-45.32-4.37-59.49l0,0c-19.6-14.17-47.24-7.35-57.74,14.35l-88.88,180.92l74.54-187.39
			c8.92-22.4-4.55-47.59-28.17-52.49l0,0c-23.62-5.07-46.02,12.6-46.89,36.57l-7.52,201.91l-8.05-201.39
			C253.4,24.66,231,7.33,207.38,12.41l0,0c-23.62,5.07-36.92,30.09-28,52.49l75.06,187.22L165.04,71.2
			c-10.67-21.7-38.32-28.52-57.91-14.17s-21.52,42.52-4.2,59.49l144.7,140.33L92.6,128.06c-18.55-15.4-46.54-10.32-58.61,10.5l0,0
			c-12.07,21-2.27,47.59,20.3,55.99l189.32,69.46L49.56,209.42c-23.27-6.47-46.72,9.45-49.34,33.42l0,0
			c-2.45,23.97,17.32,44.44,41.29,42.87l201.21-13.47L43.26,301.28c-23.97,3.5-38.84,27.65-31.32,50.57l0,0
			c7.52,22.92,33.94,33.59,55.29,22.4l178.29-94.13L75.11,387.89c-20.47,12.95-24.32,41.12-8.05,58.96l0,0
			c16.1,17.85,44.62,16.97,59.49-2.1l124.58-158.52l-111.81,167.8c-13.47,20.12-5.42,47.42,16.62,57.21l0,0
			c22.05,9.8,47.59-2.62,53.54-26.07l49.34-195.44L224.88,488.5c-4.02,23.8,14.35,45.49,38.49,45.49l0,0
			c24.15,0,42.52-21.87,38.32-45.67l-34.47-198.59l49.87,195.44c5.95,23.45,31.49,35.87,53.54,25.9s29.92-37.27,16.45-57.21
			L274.75,286.41l124.93,158.17c15.05,18.9,43.39,19.77,59.49,1.92c16.1-18.02,12.25-46.19-8.22-58.96L280.17,280.29l178.47,93.78
			c21.35,11.2,47.77,0.52,55.12-22.57l0,0C520.93,328.4,505.71,304.26,481.91,300.76z"/>
	</g>
</g>
<g id="_x34_-1" class="st0">
	<path class="st1" d="M0.31,412.61v-48.22c81.92-43.03,143.89-95.15,185.89-156.33c42-61.18,63.51-130.4,64.56-207.67h90.23
		c-6.75,84-36.3,156.99-88.67,218.95C199.94,281.3,126.05,327.32,30.65,357.39v5.44h301.79V159.83h87.89v203.01h104.22v49.78H420.32
		v132.23h-87.89V412.61H0.31z"/>
</g>
</svg>
