<?xml version="1.0" encoding="utf-8"?>
<!-- Generator: Adobe Illustrator 28.0.0, SVG Export Plug-In . SVG Version: 6.00 Build 0)  -->
<svg version="1.1" id="Layer_1" xmlns="http://www.w3.org/2000/svg" xmlns:xlink="http://www.w3.org/1999/xlink" x="0px" y="0px"
	 viewBox="0 0 574.4 133.4" style="enable-background:new 0 0 574.4 133.4;" xml:space="preserve">
<g>
	<path d="M45.1,2.5H72l45.1,128.1h-27l-8.6-27.2H35.3l-8.4,27.2H0.5L45.1,2.5z M41.4,83.5h33.9L63.8,46.6
		c-2.1-6.8-5.2-19.7-5.2-19.7h-0.4c0,0-3.2,12.9-5.4,19.7L41.4,83.5z"/>
	<path d="M124.3,2.5h57.3c13.8,0,24.4,3.4,31,9.3c7,6.3,10.2,14,10.2,24c0,13.1-8.1,21.5-20.1,25.6V62c14.1,4.1,23.8,15.9,23.8,31.7
		c0,12-3.8,20.2-11.3,26.7c-7.3,6.4-18.6,10.2-32.2,10.2h-58.7V2.5z M178.4,54.1c11.3,0,19-5.4,19-15.4c0-9.5-7-15-18.4-15h-28.7
		v30.4H178.4z M150.3,109.1h29.9c12.5,0,20.1-7,20.1-17.4c0-12.2-9-18.4-20.8-18.4h-29.2V109.1z"/>
	<path d="M230,66.8C230,28.5,254,0,291.8,0s61.6,28.5,61.6,66.8c0,38.3-23.8,66.6-61.6,66.6S230,105.1,230,66.8z M326.9,66.8
		c0-25.6-11.5-45.5-34.9-45.5s-35.5,19.9-35.5,45.5c0,25.4,12,45.3,35.5,45.3S326.9,92.2,326.9,66.8z"/>
	<path d="M362.9,89.4V2.5h26v86.9c0,13.3,6.6,22.6,24,22.6c16.5,0,24.2-9.7,24.2-22.9V2.5h26v86.9c0,27.4-16.8,43.3-49.6,43.3
		C380.3,132.7,362.9,117.1,362.9,89.4z"/>
	<path d="M471.4,2.5h103v21.9h-38.5v106.2h-26V24.4h-38.5V2.5z"/>
</g>
</svg>
