<svg x="0" y="0" viewBox="0 0 63.2 64">
  <line class="cls-1" x1="31.6" y1="0" x2="31.6" y2="64"/>
  <line class="cls-1" x1="20.66" y1="1.93" x2="42.55" y2="62.07"/>
  <line class="cls-1" x1="11.03" y1="7.49" x2="52.17" y2="56.51"/>
  <line class="cls-1" x1="3.89" y1="16" x2="59.31" y2="48"/>
  <line class="cls-1" x1=".09" y1="26.44" x2="63.11" y2="37.56"/>
  <line class="cls-1" x1=".09" y1="37.56" x2="63.11" y2="26.44"/>
  <line class="cls-1" x1="3.89" y1="48" x2="59.31" y2="16"/>
  <line class="cls-1" x1="11.03" y1="56.51" x2="52.17" y2="7.49"/>
  <line class="cls-1" x1="20.66" y1="62.07" x2="42.55" y2="1.93"/>
  <line class="cls-1" x1="20.66" y1="1.93" x2="42.55" y2="62.07"/>
  <line class="cls-1" x1="11.03" y1="7.49" x2="52.17" y2="56.51"/>
  <line class="cls-1" x1="3.89" y1="16" x2="59.31" y2="48"/>
  <line class="cls-1" x1=".09" y1="26.44" x2="63.11" y2="37.56"/>
  <line class="cls-1" x1=".09" y1="37.56" x2="63.11" y2="26.44"/>
  <line class="cls-1" x1="3.89" y1="48" x2="59.31" y2="16"/>
  <line class="cls-1" x1="11.03" y1="56.5" x2="52.17" y2="7.47"/>
  <line class="cls-1" x1="20.66" y1="62.07" x2="42.55" y2="1.93"/>
  <line class="cls-1" x1="31.6" y1="64" x2="31.6" y2="0"/>
</svg>