<?xml version="1.0" encoding="utf-8"?>
<!-- Generator: Adobe Illustrator 28.0.0, SVG Export Plug-In . SVG Version: 6.00 Build 0)  -->
<svg version="1.1" id="Layer_1" xmlns="http://www.w3.org/2000/svg" xmlns:xlink="http://www.w3.org/1999/xlink" x="0px" y="0px"
	 viewBox="0 0 480 480" style="enable-background:new 0 0 480 480;" xml:space="preserve">
<style type="text/css">
	.st0{fill:#222222;}
</style>
<path class="st0" d="M456.9,202.8c-106.8,16.6-98.6,25.4-215.6,36.7c94.4-71.6,119-76,182-121.4c10.6-7.6,4.4-29.4-11.1-45.4
	c-15.5-16-35.7-21.5-45-12.4c-63.8,87.2-51.8,87.7-126.5,178.4c16.1-117.4,30.5-137.9,42.9-214.5c2.1-12.9-17.7-23.9-40-24.2
	c-22.3-0.3-40.5,10-40.6,23.1c16.6,106.8,25.4,98.6,36.7,215.6c-71.6-94.4-76-119-121.4-182c-7.6-10.6-29.4-4.4-45.4,11.1
	c-16,15.5-21.5,35.7-12.4,45c87.2,63.8,87.7,51.8,178.4,126.5C121.4,223.3,100.8,209,24.2,196.6c-12.9-2.1-23.9,17.7-24.2,40
	c-0.3,22.3,10,40.5,23.1,40.6c106.8-16.6,98.6-25.4,215.6-36.7c-94.4,71.6-119,76-182,121.4c-10.6,7.6-4.4,29.4,11.1,45.4
	c15.5,16,35.7,21.5,45,12.4c63.8-87.2,51.8-87.7,126.5-178.4c-16.1,117.4-30.5,137.9-42.9,214.5c-2.1,12.9,17.7,23.9,40,24.2
	c22.3,0.3,40.5-10,40.6-23.1c-16.6-106.8-25.4-98.6-36.7-215.6c71.6,94.4,76,119,121.4,182c7.6,10.6,29.4,4.4,45.4-11.1
	c16-15.5,21.5-35.7,12.4-45c-87.2-63.8-87.7-51.8-178.4-126.5c117.4,16.1,137.9,30.5,214.5,42.9c12.9,2.1,23.9-17.7,24.2-40
	C480.3,221.2,470,203,456.9,202.8z"/>
</svg>
