<?xml version="1.0" encoding="utf-8"?>
<!-- Generator: Adobe Illustrator 28.0.0, SVG Export Plug-In . SVG Version: 6.00 Build 0)  -->
<svg version="1.1" id="Layer_1" xmlns="http://www.w3.org/2000/svg" xmlns:xlink="http://www.w3.org/1999/xlink" x="0px" y="0px"
	 viewBox="0 0 480 480" style="enable-background:new 0 0 480 480;" xml:space="preserve">
<style type="text/css">
	.st0{fill:#222222;}
</style>
<g>
	<g id="_x3C_Radial_Repeat_x3E__00000160881930944483519840000011021951091843252645_">
		<polygon class="st0" points="273.7,280 276.7,277.5 330.7,462.5 266.8,462.5 		"/>
	</g>
	<g id="_x3C_Radial_Repeat_x3E__00000081640379954308199310000001256710358451044283_">
		<polygon class="st0" points="258.9,288.2 262.6,286.9 254,479.3 193.6,458.7 		"/>
	</g>
	<g id="_x3C_Radial_Repeat_x3E__00000127020733273213754580000011361426476791686028_">
		<polygon class="st0" points="242.3,291.2 246.3,291.1 176,470.6 125.5,431.5 		"/>
	</g>
	<g id="_x3C_Radial_Repeat_x3E__00000101084805610169906090000009757590326946769083_">
		<polygon class="st0" points="225.6,288.7 229.4,289.9 105,437.1 69.8,383.8 		"/>
	</g>
	<g id="_x3C_Radial_Repeat_x3E__00000153667714447537756130000018025275678413715072_">
		<polygon class="st0" points="210.7,280.9 213.9,283.3 48.7,382.4 32.4,320.7 		"/>
	</g>
	<g id="_x3C_Radial_Repeat_x3E__00000054945244522613582010000001826592035912727711_">
		<polygon class="st0" points="199,268.8 201.3,272 12.9,312.6 17.5,248.8 		"/>
	</g>
	<g id="_x3C_Radial_Repeat_x3E__00000150792687788411076010000002076688118445665471_">
		<polygon class="st0" points="191.9,253.5 193,257.3 1.6,234.9 26.5,176.1 		"/>
	</g>
	<g id="_x3C_Radial_Repeat_x3E__00000142854668470749258060000004025950985194186887_">
		<polygon class="st0" points="190.1,236.7 189.9,240.6 16,157.7 58.5,110.1 		"/>
	</g>
	<g id="_x3C_Radial_Repeat_x3E__00000134219211371837152810000012962803789706761657_">
		<polygon class="st0" points="193.8,220.2 192.3,223.9 54.5,89.3 110.1,57.9 		"/>
	</g>
	<g id="_x3C_Radial_Repeat_x3E__00000106850182308831919040000005357298756320849570_">
		<polygon class="st0" points="202.6,205.9 200.1,208.9 113,37 175.8,25.2 		"/>
	</g>
	<g id="_x3C_Radial_Repeat_x3E__00000031903234643645156590000017612858384272107186_">
		<polygon class="st0" points="215.6,195.1 212.2,197.1 185.3,6.3 248.5,15.5 		"/>
	</g>
	<g id="_x3C_Radial_Repeat_x3E__00000005264934420717740430000013811960928341196727_">
		<polygon class="st0" points="231.4,189.1 227.5,189.9 263.6,0.7 320.5,29.7 		"/>
	</g>
	<g id="_x3C_Radial_Repeat_x3E__00000040548214929716246890000010530488350301398460_">
		<polygon class="st0" points="248.2,188.5 244.3,188 339.5,20.5 384,66.4 		"/>
	</g>
	<g id="_x3C_Radial_Repeat_x3E__00000098187742660710230690000006678993211464429983_">
		<polygon class="st0" points="264.4,193.4 260.8,191.7 405,63.8 432.3,121.6 		"/>
	</g>
	<g id="_x3C_Radial_Repeat_x3E__00000036214807855681769680000012927722992735722420_">
		<polygon class="st0" points="278.1,203.2 275.3,200.5 453,126 460.2,189.4 		"/>
	</g>
	<g id="_x3C_Radial_Repeat_x3E__00000026132438422090752820000014558557938097828996_">
		<polygon class="st0" points="287.9,217 286.1,213.4 478.3,200.3 464.7,262.7 		"/>
	</g>
	<g id="_x3C_Radial_Repeat_x3E__00000059999862597721321320000010206739930259824054_">
		<polygon class="st0" points="292.7,233.1 292.2,229.2 478.4,278.8 445.3,333.4 		"/>
	</g>
	<g id="_x3C_Radial_Repeat_x3E__00000049911380132680888770000004869383265301458315_">
		<polygon class="st0" points="292.1,250 292.9,246.1 453.1,353.1 404.2,394.1 		"/>
	</g>
	<g id="_x3C_Radial_Repeat_x3E__00000141444205343021746120000006800785518864813199_">
		<polygon class="st0" points="286.1,265.7 288.1,262.3 405.2,415.3 345.6,438.3 		"/>
	</g>
</g>
</svg>
