<svg id="eHoWuNMSRZU1" xmlns="http://www.w3.org/2000/svg" xmlns:xlink="http://www.w3.org/1999/xlink" viewBox="0 0 1000 1000" shape-rendering="geometricPrecision" text-rendering="geometricPrecision">
<style><![CDATA[
#eHoWuNMSRZU7_tr {animation: eHoWuNMSRZU7_tr__tr 3000ms linear infinite normal forwards}@keyframes eHoWuNMSRZU7_tr__tr { 0% {transform: translate(500px,1000px) rotate(0deg)} 100% {transform: translate(500px,1000px) rotate(-12deg)}} #eHoWuNMSRZU12_tr {animation: eHoWuNMSRZU12_tr__tr 3000ms linear infinite normal forwards}@keyframes eHoWuNMSRZU12_tr__tr { 0% {transform: translate(500px,1000px) rotate(0deg)} 100% {transform: translate(500px,1000px) rotate(6deg)}} #eHoWuNMSRZU17_tr {animation: eHoWuNMSRZU17_tr__tr 3000ms linear infinite normal forwards}@keyframes eHoWuNMSRZU17_tr__tr { 0% {transform: translate(500px,1000px) rotate(0deg)} 100% {transform: translate(500px,1000px) rotate(-6deg)}}
]]></style>
<defs><path id="eHoWuNMSRZU2" d="M500,0C223.9,0,0,223.9,0,500s223.9,500,500,500c-183.9,0-333-149.1-333-333s149.1-333,333-333s333,149.1,333,333-149.1,333-333,333c276.1,0,500-223.9,500-500s-223.9-500-500-500Z"/><path id="eHoWuNMSRZU3" d="M833,667c0-183.9-149.1-333-333-333s-333,149.1-333,333s149.1,333,333,333c-92,0-166.5-74.5-166.5-166.5s74.5-166.5,166.5-166.5s166.5,74.5,166.5,166.5-74.5,166.5-166.5,166.5c183.9,0,333-149.1,333-333Z"/><circle id="eHoWuNMSRZU4" r="166.5"/></defs><g><g clip-path="url(#eHoWuNMSRZU8)"><g id="eHoWuNMSRZU7_tr" transform="translate(500,1000) rotate(0)"><polygon points="1500,997 557.3,997 1494.8,898.5 1494.2,892.5 556.6,991 1478.8,795 1477.5,789.2 555.4,985.2 1452,693.8 1450.1,688.1 553.5,979.5 1414.8,596 1412.3,590.5 551.1,974 1367.5,502.6 1364.5,497.4 548.1,968.8 1310.8,414.6 1307.3,409.8 544.5,963.9 1245.2,333.1 1241.1,328.6 540.5,959.5 1171.4,258.9 1166.9,254.8 536.1,955.4 1090.2,192.7 1085.4,189.2 531.2,951.9 1002.6,135.5 997.4,132.5 526,948.9 909.5,87.7 904,85.2 520.5,946.5 811.9,49.9 806.2,48 514.8,944.6 710.8,22.5 705,21.2 509,943.4 607.5,5.8 601.5,5.2 503,942.8 503,0 497,0 497,942.7 398.5,5.2 392.5,5.8 491,943.4 295,21.2 289.2,22.5 485.2,944.6 193.8,48 188.1,49.9 479.5,946.5 96,85.2 90.5,87.7 474,948.9 2.6,132.5 -2.6,135.5 468.8,951.9 -85.4,189.2 -90.2,192.7 463.9,955.4 -166.9,254.8 -171.4,258.9 459.5,959.5 -241.1,328.6 -245.2,333.1 455.4,963.9 -307.3,409.8 -310.8,414.6 451.9,968.8 -364.5,497.4 -367.5,502.6 448.9,974 -412.3,590.5 -414.8,596 446.5,979.5 -450.1,688.1 -452,693.8 444.6,985.2 -477.5,789.2 -478.8,795 443.4,991 -494.2,892.5 -494.8,898.5 442.7,997 -500,997 -500,1003 442.8,1003 -494.8,1101.5 -494.2,1107.5 443.4,1009 -478.8,1205 -477.5,1210.8 444.6,1014.8 -452,1306.2 -450.1,1311.9 446.5,1020.5 -414.8,1404 -412.3,1409.5 448.9,1026 -367.5,1497.4 -364.5,1502.6 451.9,1031.2 -310.8,1585.4 -307.3,1590.2 455.4,1036.1 -245.2,1666.9 -241.1,1671.4 459.5,1040.5 -171.4,1741.1 -166.9,1745.2 463.9,1044.5 -90.2,1807.3 -85.4,1810.8 468.8,1048.1 -2.6,1864.5 2.6,1867.5 474,1051.1 90.5,1912.3 96,1914.8 479.5,1053.5 188.1,1950.1 193.8,1952 485.2,1055.4 289.2,1977.5 295,1978.8 491,1056.6 392.5,1994.2 398.5,1994.8 497,1057.3 497,2000 503,2000 503,1057.2 601.5,1994.8 607.5,1994.2 509,1056.6 705,1978.8 710.8,1977.5 514.8,1055.4 806.2,1952 811.9,1950.1 520.5,1053.5 904,1914.8 909.5,1912.3 526,1051.1 997.4,1867.5 1002.6,1864.5 531.2,1048.1 1085.4,1810.8 1090.2,1807.3 536.1,1044.5 1166.9,1745.2 1171.4,1741.1 540.5,1040.5 1241.1,1671.4 1245.2,1666.9 544.5,1036.1 1307.3,1590.2 1310.8,1585.4 548.1,1031.2 1364.5,1502.6 1367.5,1497.4 551.1,1026 1412.3,1409.5 1414.8,1404 553.5,1020.5 1450.1,1311.9 1452,1306.2 555.4,1014.8 1477.5,1210.8 1478.8,1205 556.6,1009 1494.2,1107.5 1494.8,1101.5 557.2,1003 1500,1003" transform="translate(-500,-1000)" fill="#bc1818"/></g><clipPath id="eHoWuNMSRZU8"><use width="1000" height="1000" xlink:href="#eHoWuNMSRZU2"/></clipPath></g></g><g><g clip-path="url(#eHoWuNMSRZU13)"><g id="eHoWuNMSRZU12_tr" transform="translate(500,1000) rotate(0)"><polygon points="1500,998 538.2,998 1494.7,897.5 1494.3,893.5 537.7,994 1478.6,794 1477.7,790.1 536.9,990.1 1451.7,692.9 1450.4,689.1 535.7,986.3 1414.4,595.1 1412.7,591.4 534.1,982.6 1367,501.7 1365,498.3 532.1,979.2 1310.2,413.8 1307.8,410.6 529.7,976 1244.5,332.4 1241.8,329.4 527,973 1170.6,258.2 1167.6,255.5 524,970.3 1089.4,192.2 1086.2,189.8 520.8,968 1001.7,135 998.3,133 517.4,965.9 908.6,87.3 904.9,85.6 513.7,964.3 810.9,49.6 807.1,48.3 509.9,963.1 709.9,22.3 706,21.4 506,962.3 606.5,5.7 602.5,5.3 502,961.8 502,0 498,0 498,961.8 397.5,5.3 393.5,5.7 494,962.3 294,21.4 290.1,22.3 490.1,963.1 192.9,48.3 189.1,49.6 486.3,964.3 95.1,85.6 91.4,87.3 482.6,965.9 1.7,133 -1.7,135 479.2,968 -86.2,189.8 -89.4,192.2 476,970.3 -167.6,255.5 -170.6,258.2 473,973 -241.8,329.4 -244.5,332.4 470.3,976 -307.8,410.6 -310.2,413.8 468,979.2 -365,498.3 -367,501.7 465.9,982.6 -412.7,591.4 -414.4,595.1 464.3,986.3 -450.4,689.1 -451.7,692.9 463.1,990.1 -477.7,790.1 -478.6,794 462.3,994 -494.3,893.5 -494.7,897.5 461.8,998 -500,998 -500,1002 461.8,1002 -494.7,1102.5 -494.3,1106.5 462.3,1006 -478.6,1206 -477.7,1209.9 463.1,1009.9 -451.7,1307.1 -450.4,1310.9 464.3,1013.7 -414.4,1404.9 -412.7,1408.6 465.9,1017.4 -367,1498.3 -365,1501.7 468,1020.8 -310.2,1586.2 -307.8,1589.4 470.3,1024 -244.5,1667.6 -241.8,1670.6 473,1027 -170.6,1741.8 -167.6,1744.5 476,1029.7 -89.4,1807.8 -86.2,1810.2 479.2,1032.1 -1.7,1865 1.7,1867 482.6,1034.1 91.4,1912.7 95.1,1914.4 486.3,1035.7 189.1,1950.4 192.9,1951.7 490.1,1036.9 290.1,1977.7 294,1978.6 494,1037.7 393.5,1994.3 397.5,1994.7 498,1038.2 498,2000 502,2000 502,1038.2 602.5,1994.7 606.5,1994.3 506,1037.7 706,1978.6 709.9,1977.7 509.9,1036.9 807.1,1951.7 810.9,1950.4 513.7,1035.7 904.9,1914.4 908.6,1912.7 517.4,1034.1 998.3,1867 1001.7,1865 520.8,1032.1 1086.2,1810.2 1089.4,1807.8 524,1029.7 1167.6,1744.5 1170.6,1741.8 527,1027 1241.8,1670.6 1244.5,1667.6 529.7,1024 1307.8,1589.4 1310.2,1586.2 532.1,1020.8 1365,1501.7 1367,1498.3 534.1,1017.4 1412.7,1408.6 1414.4,1404.9 535.7,1013.7 1450.4,1310.9 1451.7,1307.1 536.9,1009.9 1477.7,1209.9 1478.6,1206 537.7,1006 1494.3,1106.5 1494.7,1102.5 538.2,1002 1500,1002" transform="translate(-500,-1000)" fill="#bc1818"/></g><clipPath id="eHoWuNMSRZU13"><use width="666" height="666" xlink:href="#eHoWuNMSRZU3"/></clipPath></g></g><g><g clip-path="url(#eHoWuNMSRZU18)"><g id="eHoWuNMSRZU17_tr" transform="translate(500,1000) rotate(0)"><polygon points="1500,999 519.1,999 1494.6,896.5 1494.4,894.5 518.9,997 1478.4,793.1 1477.9,791.1 518.5,995.1 1451.4,691.9 1450.7,690 517.8,993.2 1414,594.2 1413.1,592.4 517,991.3 1366.5,500.9 1365.5,499.1 516,989.6 1309.6,413 1308.4,411.4 514.8,988 1243.8,331.6 1242.5,330.1 513.5,986.5 1169.9,257.5 1168.4,256.2 512,985.1 1088.6,191.6 1087,190.4 510.4,984 1000.9,134.5 999.1,133.5 508.7,983 907.7,86.9 905.8,86 506.9,982.2 810,49.3 808.1,48.6 504.9,981.5 708.9,22.1 706.9,21.6 503,981.1 605.5,5.6 603.5,5.4 501,980.9 501,0 499,0 499,980.9 396.5,5.4 394.5,5.6 497,981.1 293.1,21.6 291.1,22.1 495.1,981.5 191.9,48.6 190,49.3 493.2,982.2 94.2,86 92.4,86.9 491.3,983 0.9,133.5 -0.9,134.5 489.6,984 -87,190.4 -88.6,191.6 488,985.2 -168.4,256.2 -169.9,257.5 486.5,986.5 -242.5,330.1 -243.8,331.6 485.2,988 -308.4,411.4 -309.6,413 484,989.6 -365.5,499.1 -366.5,500.9 483,991.3 -413.1,592.4 -414,594.2 482.2,993.2 -450.7,690 -451.4,691.9 481.5,995.1 -477.9,791.1 -478.4,793.1 481.1,997 -494.4,894.5 -494.6,896.5 480.9,999 -500,999 -500,1001 480.9,1001 -494.6,1103.5 -494.4,1105.5 481.1,1003 -478.4,1206.9 -477.9,1208.9 481.5,1004.9 -451.4,1308.1 -450.7,1310 482.2,1006.9 -414,1405.8 -413.1,1407.7 483,1008.7 -366.5,1499.1 -365.5,1500.9 484,1010.4 -309.6,1587 -308.4,1588.6 485.1,1012 -243.8,1668.4 -242.5,1669.9 486.5,1013.5 -169.9,1742.5 -168.4,1743.8 488,1014.8 -88.6,1808.4 -87,1809.6 489.6,1016 -0.9,1865.5 0.9,1866.5 491.3,1017 92.4,1913.1 94.2,1914 493.2,1017.8 190,1950.7 191.9,1951.4 495.1,1018.5 291.1,1977.9 293.1,1978.4 497,1018.9 394.5,1994.4 396.5,1994.6 499,1019.1 499,2000 501,2000 501,1019.1 603.5,1994.6 605.5,1994.4 503,1018.9 706.9,1978.4 708.9,1977.9 504.9,1018.5 808.1,1951.4 810,1950.7 506.8,1017.8 905.8,1914 907.7,1913.1 508.7,1017 999.1,1866.5 1000.9,1865.5 510.4,1016 1087,1809.6 1088.6,1808.4 512,1014.8 1168.4,1743.8 1169.9,1742.5 513.5,1013.5 1242.5,1669.9 1243.8,1668.4 514.8,1012 1308.4,1588.6 1309.6,1587 516,1010.4 1365.5,1500.9 1366.5,1499.1 517,1008.7 1413.1,1407.7 1414,1405.8 517.8,1006.8 1450.7,1310 1451.4,1308.1 518.5,1004.9 1477.9,1208.9 1478.4,1206.9 518.9,1003 1494.4,1105.5 1494.6,1103.5 519.1,1001 1500,1001" transform="translate(-500,-1000)" fill="#bc1818"/></g><clipPath id="eHoWuNMSRZU18"><use width="333" height="333" xlink:href="#eHoWuNMSRZU4" transform="translate(500 833.5)"/></clipPath></g></g></svg>
