<?xml version="1.0" encoding="UTF-8"?>
<svg id="Layer_1" data-name="Layer 1" xmlns="http://www.w3.org/2000/svg" xmlns:xlink="http://www.w3.org/1999/xlink" viewBox="0 0 480 480">
  <defs>
    <style>
      .cls-1 {
        clip-path: url(#clippath);
      }

      .cls-2 {
        fill: none;
      }

      .cls-2, .cls-3 {
        stroke-width: 0px;
      }

      .cls-4 {
        clip-path: url(#clippath-1);
      }

      .cls-3 {
        fill: #222;
      }
    </style>
    <clipPath id="clippath">
      <path class="cls-2" d="m480,240c0,132.53-107.47,240-240,240S0,372.53,0,240h480Z"/>
    </clipPath>
    <clipPath id="clippath-1">
      <path class="cls-2" d="m0,240C0,107.47,107.47,0,240,0s240,107.47,240,240H0Z"/>
    </clipPath>
  </defs>
  <g class="cls-1">
    <g id="eZ1B2N4W8Pt6_tr" data-name="eZ1B2N4W8Pt6 tr">
      <g>
        <path class="cls-3" d="m278.78,285.79c-2.26,1.92-4.7,3.7-7.25,5.28l88.46,156.77-91.58-154.99c-2.64,1.39-5.33,2.64-8.16,3.65l53.9,171.74-57.31-170.64c-2.83.82-5.76,1.44-8.78,1.87l17.04,179.23-20.59-178.85c-1.49.1-2.98.14-4.46.14s-2.98-.05-4.46-.14l-20.59,178.85,17.04-179.23c-2.98-.38-5.9-1.01-8.78-1.87l-57.41,170.64,53.9-171.74c-2.83-1.01-5.57-2.26-8.16-3.65l-91.58,154.99,88.46-156.82c-2.54-1.58-4.94-3.36-7.25-5.28l-121.82,132.62c42.53,38.3,98.83,61.63,160.61,61.63s118.08-23.33,160.61-61.63l-121.82-132.58Z"/>
        <path class="cls-3" d="m198.53,283.34c-2.16-2.06-4.18-4.27-6-6.67l-146.69,104.4,144.58-107.28c-1.68-2.45-3.17-5.04-4.46-7.78L20.74,337.63l163.73-74.88c-1.1-2.74-2.06-5.57-2.78-8.54L5.23,289.92l175.73-39.22c-.53-2.88-.82-5.86-.91-8.93L0,240l180.05-1.82c.1-3.02.38-6,.91-8.93L5.23,190.08l176.45,35.66c.72-2.93,1.63-5.76,2.78-8.54L20.74,142.32l165.17,71.57c1.3-2.69,2.83-5.28,4.46-7.78L45.84,98.93l146.69,104.35c1.82-2.35,3.84-4.61,6-6.67L79.39,61.63C30.67,105.6,0,169.2,0,240s30.67,134.4,79.39,178.37l119.14-135.02Z"/>
        <path class="cls-3" d="m201.22,194.21c2.26-1.92,4.7-3.7,7.25-5.28L120,32.16l91.58,154.99c2.64-1.39,5.33-2.64,8.16-3.65L165.84,11.76l57.31,170.64c2.83-.82,5.76-1.44,8.78-1.87L214.9,1.3l20.59,178.85c1.49-.1,2.98-.14,4.46-.14s2.98.05,4.46.14L265.1,1.3l-17.04,179.23c2.98.38,5.9,1.01,8.78,1.87L314.16,11.76l-53.9,171.74c2.83,1.01,5.57,2.26,8.16,3.65l91.58-154.99-88.46,156.82c2.54,1.58,4.94,3.36,7.25,5.28l121.82-132.58C358.08,23.33,301.78,0,240,0S121.92,23.33,79.39,61.63l121.82,132.58Z"/>
        <path class="cls-3" d="m299.95,241.82c-.1,3.02-.38,6-.91,8.93l175.73,39.17-176.45-35.66c-.72,2.93-1.63,5.76-2.78,8.54l163.73,74.88-165.22-71.62c-1.3,2.69-2.83,5.28-4.46,7.78l144.58,107.28-146.69-104.4c-1.82,2.35-3.84,4.61-6,6.67l119.14,134.98c48.72-43.97,79.39-107.57,79.39-178.37l-180.05,1.82Z"/>
        <path class="cls-3" d="m400.61,61.63l-119.14,135.02c2.16,2.06,4.18,4.27,6,6.67l146.69-104.35-144.58,107.23c1.68,2.45,3.17,5.04,4.46,7.78l165.17-71.57-163.73,74.88c1.1,2.74,2.06,5.57,2.78,8.54l176.5-35.76-175.73,39.22c.53,2.88.82,5.86.91,8.93l180.05,1.78c0-70.8-30.67-134.4-79.39-178.37Z"/>
      </g>
    </g>
  </g>
  <g class="cls-4">
    <g id="eZ1B2N4W8Pt16_tr" data-name="eZ1B2N4W8Pt16 tr">
      <path class="cls-3" d="m474.77,289.92l-175.73-39.22c.53-2.88.82-5.86.91-8.93l180.05-1.78-180.05-1.82c-.1-3.02-.38-6-.91-8.93l175.73-39.17-176.45,35.66c-.72-2.93-1.63-5.76-2.78-8.54l163.73-74.88-165.22,71.62c-1.3-2.69-2.83-5.28-4.46-7.78l144.58-107.28-146.69,104.4c-1.82-2.35-3.84-4.61-6-6.67l119.14-134.98-121.82,132.58c-2.26-1.92-4.7-3.7-7.25-5.28l88.46-156.77-91.58,154.99c-2.64-1.39-5.33-2.64-8.16-3.65L314.16,11.76l-57.31,170.64c-2.83-.82-5.76-1.44-8.78-1.87L265.1,1.3l-20.59,178.85c-1.49-.1-2.98-.14-4.46-.14s-2.98.05-4.46.14L214.9,1.3l17.04,179.23c-2.98.38-5.9,1.01-8.78,1.87L165.84,11.76l53.9,171.74c-2.83,1.01-5.57,2.26-8.16,3.65L120,32.16l88.46,156.82c-2.54,1.58-4.94,3.36-7.25,5.28L79.39,61.63l119.14,134.98c-2.16,2.06-4.18,4.27-6,6.67L45.84,98.93l144.58,107.28c-1.68,2.45-3.17,5.04-4.46,7.78L20.74,142.37l163.73,74.88c-1.1,2.74-2.06,5.57-2.78,8.54L5.23,190.08l175.73,39.22c-.53,2.88-.82,5.86-.91,8.93L0,240l180.05,1.82c.1,3.02.38,6,.91,8.93L5.23,289.92l176.45-35.66c.72,2.93,1.63,5.76,2.78,8.54L20.74,337.68l165.17-71.57c1.3,2.69,2.83,5.28,4.46,7.78l-144.53,107.18,146.69-104.35c1.82,2.35,3.84,4.61,6,6.67l-119.14,134.98,121.82-132.58c2.26,1.92,4.7,3.7,7.25,5.28l-88.46,156.77,91.58-154.99c2.64,1.39,5.33,2.64,8.16,3.65l-53.9,171.74,57.31-170.64c2.83.82,5.76,1.44,8.78,1.87l-17.04,179.23,20.59-178.85c1.49.1,2.98.14,4.46.14s2.98-.05,4.46-.14l20.59,178.85-17.04-179.23c2.98-.38,5.9-1.01,8.78-1.87l57.36,170.64-53.86-171.74c2.83-1.01,5.57-2.26,8.16-3.65l91.58,154.99-88.46-156.82c2.54-1.58,4.94-3.36,7.25-5.28l121.82,132.58-119.14-134.98c2.16-2.06,4.18-4.27,6-6.67l146.69,104.35-144.58-107.23c1.68-2.45,3.17-5.04,4.46-7.78l165.17,71.57-163.73-74.88c1.1-2.74,2.06-5.57,2.78-8.54l176.5,35.76Z"/>
    </g>
  </g>
</svg>