<svg id="eZ1B2N4W8Pt1" xmlns="http://www.w3.org/2000/svg" xmlns:xlink="http://www.w3.org/1999/xlink" viewBox="0 0 1000 1000" shape-rendering="geometricPrecision" text-rendering="geometricPrecision">
<style><![CDATA[
#eZ1B2N4W8Pt6_tr {animation: eZ1B2N4W8Pt6_tr__tr 3000ms linear infinite normal forwards}@keyframes eZ1B2N4W8Pt6_tr__tr { 0% {transform: translate(500px,500px) rotate(0deg)} 100% {transform: translate(500px,500px) rotate(-12deg)}} #eZ1B2N4W8Pt16_tr {animation: eZ1B2N4W8Pt16_tr__tr 3000ms linear infinite normal forwards}@keyframes eZ1B2N4W8Pt16_tr__tr { 0% {transform: translate(500px,500.000018px) rotate(0deg)} 100% {transform: translate(500px,500.000018px) rotate(-12deg)}}
]]></style>
<defs><path id="eZ1B2N4W8Pt2" d="M1000,500c0,276.1-223.9,500-500,500s-500-223.9-500-500h1000Z"/><path id="eZ1B2N4W8Pt3" d="M0,500C0,223.9,223.9,0,500,0s500,223.9,500,500L0,500Z"/></defs><g><g clip-path="url(#eZ1B2N4W8Pt12)"><g id="eZ1B2N4W8Pt6_tr" transform="translate(500,500) rotate(0)"><g transform="translate(-500,-500)"><path d="M580.8,595.4c-4.7,4-9.8,7.7-15.1,11L750,933L559.2,610.1c-5.5,2.9-11.1,5.5-17,7.6L654.5,975.5L535.1,620c-5.9,1.7-12,3-18.3,3.9l35.5,373.4-42.9-372.6c-3.1.2-6.2.3-9.3.3s-6.2-.1-9.3-.3L447.9,997.3l35.5-373.4c-6.2-.8-12.3-2.1-18.3-3.9L345.5,975.5L457.8,617.7c-5.9-2.1-11.6-4.7-17-7.6L250,933L434.3,606.3c-5.3-3.3-10.3-7-15.1-11L165.4,871.6C254,951.4,371.3,1000,500,1000s246-48.6,334.6-128.4L580.8,595.4Z" fill="#222"/><path d="M413.6,590.3c-4.5-4.3-8.7-8.9-12.5-13.9L95.5,793.9L396.7,570.4c-3.5-5.1-6.6-10.5-9.3-16.2L43.2,703.4l341.1-156c-2.3-5.7-4.3-11.6-5.8-17.8L10.9,604L377,522.3c-1.1-6-1.7-12.2-1.9-18.6L0,500l375.1-3.8c.2-6.3.8-12.5,1.9-18.6L10.9,396l367.6,74.3c1.5-6.1,3.4-12,5.8-17.8L43.2,296.5L387.3,445.6c2.7-5.6,5.9-11,9.3-16.2L95.5,206.1L401.1,423.5c3.8-4.9,8-9.6,12.5-13.9L165.4,128.4C63.9,220,0,352.5,0,500s63.9,280,165.4,371.6L413.6,590.3Z" fill="#222"/><path d="M419.2,404.6c4.7-4,9.8-7.7,15.1-11L250,67L440.8,389.9c5.5-2.9,11.1-5.5,17-7.6L345.5,24.5L464.9,380c5.9-1.7,12-3,18.3-3.9L447.7,2.7l42.9,372.6c3.1-.2,6.2-.3,9.3-.3s6.2.1,9.3.3L552.3,2.7L516.8,376.1c6.2.8,12.3,2.1,18.3,3.9L654.5,24.5L542.2,382.3c5.9,2.1,11.6,4.7,17,7.6L750,67L565.7,393.7c5.3,3.3,10.3,7,15.1,11L834.6,128.5C746,48.6,628.7,0,500,0s-246,48.6-334.6,128.4L419.2,404.6Z" fill="#222"/><path d="M624.9,503.8c-.2,6.3-.8,12.5-1.9,18.6L989.1,604L621.5,529.7c-1.5,6.1-3.4,12-5.8,17.8l341.1,156L612.6,554.3c-2.7,5.6-5.9,11-9.3,16.2L904.5,794L598.9,576.5c-3.8,4.9-8,9.6-12.5,13.9L834.6,871.6C936.1,780,1000,647.5,1000,500l-375.1,3.8Z" fill="#222"/><path d="M834.6,128.4L586.4,409.7c4.5,4.3,8.7,8.9,12.5,13.9L904.5,206.2L603.3,429.6c3.5,5.1,6.6,10.5,9.3,16.2L956.7,296.7l-341.1,156c2.3,5.7,4.3,11.6,5.8,17.8L989.1,396L623,477.7c1.1,6,1.7,12.2,1.9,18.6L1000,500c0-147.5-63.9-280-165.4-371.6Z" fill="#222"/></g></g><clipPath id="eZ1B2N4W8Pt12"><use width="1000" height="500" xlink:href="#eZ1B2N4W8Pt2"/></clipPath></g></g><g><g clip-path="url(#eZ1B2N4W8Pt17)"><g id="eZ1B2N4W8Pt16_tr" transform="translate(500,500.000018) rotate(0)"><path d="M989.1,604L623,522.3c1.1-6,1.7-12.2,1.9-18.6L1000,500l-375.1-3.8c-.2-6.3-.8-12.5-1.9-18.6L989.1,396L621.5,470.3c-1.5-6.1-3.4-12-5.8-17.8l341.1-156L612.6,445.7c-2.7-5.6-5.9-11-9.3-16.2L904.5,206L598.9,423.5c-3.8-4.9-8-9.6-12.5-13.9L834.6,128.4L580.8,404.6c-4.7-4-9.8-7.7-15.1-11L750,67L559.2,389.9c-5.5-2.9-11.1-5.5-17-7.6L654.5,24.5L535.1,380c-5.9-1.7-12-3-18.3-3.9L552.3,2.7L509.4,375.3c-3.1-.2-6.2-.3-9.3-.3s-6.2.1-9.3.3L447.7,2.7l35.5,373.4c-6.2.8-12.3,2.1-18.3,3.9L345.5,24.5L457.8,382.3c-5.9,2.1-11.6,4.7-17,7.6L250,67L434.3,393.7c-5.3,3.3-10.3,7-15.1,11L165.4,128.4L413.6,409.6c-4.5,4.3-8.7,8.9-12.5,13.9L95.5,206.1L396.7,429.6c-3.5,5.1-6.6,10.5-9.3,16.2L43.2,296.6l341.1,156c-2.3,5.7-4.3,11.6-5.8,17.8L10.9,396L377,477.7c-1.1,6-1.7,12.2-1.9,18.6L0,500l375.1,3.8c.2,6.3.8,12.5,1.9,18.6L10.9,604l367.6-74.3c1.5,6.1,3.4,12,5.8,17.8L43.2,703.5L387.3,554.4c2.7,5.6,5.9,11,9.3,16.2L95.5,793.9L401.1,576.5c3.8,4.9,8,9.6,12.5,13.9L165.4,871.6L419.2,595.4c4.7,4,9.8,7.7,15.1,11L250,933L440.8,610.1c5.5,2.9,11.1,5.5,17,7.6L345.5,975.5L464.9,620c5.9,1.7,12,3,18.3,3.9L447.7,997.3l42.9-372.6c3.1.2,6.2.3,9.3.3s6.2-.1,9.3-.3l42.9,372.6-35.5-373.4c6.2-.8,12.3-2.1,18.3-3.9L654.4,975.5L542.2,617.7c5.9-2.1,11.6-4.7,17-7.6L750,933L565.7,606.3c5.3-3.3,10.3-7,15.1-11L834.6,871.5L586.4,590.3c4.5-4.3,8.7-8.9,12.5-13.9L904.5,793.8L603.3,570.4c3.5-5.1,6.6-10.5,9.3-16.2L956.7,703.3l-341.1-156c2.3-5.7,4.3-11.6,5.8-17.8L989.1,604Z" transform="translate(-500,-500.000018)" fill="#222"/></g><clipPath id="eZ1B2N4W8Pt17"><use width="1000" height="500" xlink:href="#eZ1B2N4W8Pt3"/></clipPath></g></g></svg>
